<svg width="669" height="721" viewBox="0 0 669 721" fill="none" xmlns="http://www.w3.org/2000/svg">
<path d="M121.586 169.831C170.103 127.475 218.471 130.94 250.782 152.919C290.666 179.949 297.209 229.943 293.791 268.324C291.498 294.46 304.547 315.28 337.094 301.542C388.984 279.539 465.294 259.45 512.778 302.663L513.294 303.132C553.758 348.258 540.437 431.087 462.754 515.419C343.775 644.74 235.824 615.713 209.821 592.937C206.178 589.724 197.799 582.511 187.991 586.982C184.747 588.483 179.657 594.147 176.33 602.882C159.391 647.747 191.884 684.422 215.317 700.65C278.574 744.498 467.171 723.743 595.164 540.773C595.103 540.924 677.653 425.359 667.174 323.702C667.174 323.702 664.974 206.015 552.577 160.406C499.261 138.758 438.99 151.358 407.879 160.419C396.72 163.648 384.596 157.647 381.795 147.505C341.817 0.392123 180.59 -41.1617 84.526 43.7652C-11.5378 128.692 -9.41946 196.963 12.5502 235.283C22.7452 253.119 41.831 259.986 52.7202 245.353C76.3159 213.752 98.6455 189.699 121.48 169.876L121.586 169.831Z" fill="#007BA1"/>
</svg>
