<svg width="106" height="108" viewBox="0 0 106 108" fill="none" xmlns="http://www.w3.org/2000/svg">
<path d="M68.3489 11.8813C62.0109 0.903458 47.9254 -2.83557 36.8963 3.53209C25.8672 9.89975 22.0626 23.9676 28.4006 34.9455L43.3509 60.8401L42.8686 60.87L23.2923 61.1401C10.5597 61.3126 0.384774 71.7553 0.492794 84.4344C0.614272 97.1368 11.0405 107.246 23.7497 107.087L43.3258 106.817L83.155 106.259C83.4564 106.24 83.7444 106.198 84.0225 106.193C84.9034 106.151 85.7573 106.062 86.6079 105.912C87.4952 105.773 88.3423 105.564 89.1759 105.331C89.581 105.221 89.986 105.112 90.401 104.966C91.6227 104.54 92.7771 103.998 93.8911 103.386C94.0082 103.318 94.1153 103.287 94.2324 103.22C94.3261 103.166 94.3829 103.102 94.4766 103.048C95.7176 102.331 96.8779 101.475 97.9844 100.525C98.0079 100.512 98.0313 100.498 98.0547 100.485C104.008 95.2759 107.285 87.1068 105.458 78.3725C104.834 75.3453 103.527 72.65 101.84 70.268L78.0681 28.7694L68.3121 11.8715L68.3489 11.8813Z" fill="#FFD131"/>
</svg>
