<svg width="506" height="546" viewBox="0 0 506 546" fill="none" xmlns="http://www.w3.org/2000/svg">
<path d="M413.34 129.179C376.675 97.1699 340.124 99.7883 315.706 116.398C285.566 136.825 280.622 174.605 283.204 203.61C284.937 223.361 275.076 239.094 250.48 228.712C211.267 212.084 153.6 196.903 117.717 229.559L117.327 229.914C86.7481 264.015 96.8145 326.609 155.52 390.339C245.432 488.067 327.01 466.131 346.661 448.919C349.414 446.491 355.746 441.04 363.157 444.419C365.609 445.553 369.455 449.833 371.97 456.434C384.771 490.339 360.216 518.054 342.507 530.318C294.704 563.454 152.181 547.769 55.4577 409.499C55.5034 409.613 -6.87907 322.281 1.03999 245.459C1.03999 245.459 2.70253 156.523 87.6405 122.056C127.931 105.697 173.478 115.218 196.989 122.066C205.421 124.506 214.583 119.971 216.7 112.306C246.912 1.13378 368.751 -30.2684 441.346 33.9108C513.941 98.0899 512.341 149.682 495.738 178.64C488.034 192.119 473.611 197.309 465.382 186.251C447.55 162.37 430.676 144.193 413.42 129.213L413.34 129.179Z" fill="#FFEDBF"/>
</svg>
