<svg width="368" height="372" viewBox="0 0 368 372" fill="none" xmlns="http://www.w3.org/2000/svg">
<path d="M131.075 332.192C153.12 370.376 202.204 383.329 240.679 361.115C279.154 338.902 292.478 289.918 270.433 251.734L218.432 161.666L220.113 161.559L288.356 160.533C332.741 159.876 368.256 123.482 367.935 79.349C367.568 35.135 331.268 -0.00715762 286.964 0.602177L218.722 1.62876L79.8791 3.74694C78.8282 3.81322 77.824 3.9606 76.8548 3.97971C73.7838 4.13138 70.8066 4.44505 67.8412 4.96815C64.7472 5.45734 61.7935 6.18982 58.8867 7.0033C57.4742 7.38645 56.0617 7.76956 54.6143 8.28095C50.3538 9.76794 46.3272 11.6603 42.4412 13.7958C42.0327 14.0316 41.6593 14.1392 41.2509 14.375C40.9241 14.5636 40.7257 14.7862 40.399 14.9749C36.0696 17.4745 32.021 20.4604 28.1597 23.7707C28.078 23.8179 27.9963 23.8651 27.9146 23.9122C7.13838 42.0687 -4.3187 70.5182 2.01129 100.913C4.17236 111.447 8.71429 120.823 14.5862 129.107L97.2695 273.451L131.203 332.226L131.075 332.192Z" fill="#FFD131"/>
</svg>
