<svg width="106" height="108" viewBox="0 0 106 108" fill="none" xmlns="http://www.w3.org/2000/svg">
<path d="M37.8361 95.9151C44.1742 106.893 58.2596 110.632 69.2887 104.264C80.3179 97.8966 84.1225 83.8287 77.7844 72.8509L62.8342 46.9563L63.3165 46.9264L82.8927 46.6563C95.6253 46.4838 105.8 36.041 105.692 23.362C105.571 10.6596 95.1446 0.550393 82.4354 0.709331L62.8592 0.979434L23.0301 1.53745C22.7286 1.55611 22.4406 1.59809 22.1626 1.60322C21.2817 1.64567 20.4277 1.73471 19.5772 1.88391C18.6898 2.02332 17.8427 2.23269 17.0092 2.46533C16.6041 2.5749 16.1991 2.68444 15.784 2.83083C14.5623 3.25647 13.4079 3.79866 12.2939 4.41077C12.1768 4.47837 12.0698 4.50913 11.9527 4.57672C11.859 4.6308 11.8022 4.69468 11.7085 4.74876C10.4674 5.46529 9.30712 6.32166 8.20061 7.27127C8.1772 7.28479 8.15379 7.2983 8.13037 7.31182C2.17689 12.5204 -1.09944 20.6895 0.727496 29.4239C1.35127 32.4511 2.65763 35.1464 4.3451 37.5284L28.117 79.0269L37.873 95.9249L37.8361 95.9151Z" fill="#FFEDBF"/>
</svg>
