<svg width="189" height="200" viewBox="0 0 189 200" fill="none" xmlns="http://www.w3.org/2000/svg">
<path d="M96.7614 15.1054C81.7868 -2.13036 55.5564 -3.87177 38.1893 11.2169C20.8223 26.3056 18.8819 52.522 33.8566 69.7578L69.1789 110.414L68.3345 110.634L33.7443 117.889C11.2454 122.602 -3.21787 144.608 1.29976 167.012C5.84919 189.452 27.7702 203.735 50.2323 199.054L84.8223 191.798L155.195 177.022C155.723 176.884 156.219 176.71 156.71 176.605C158.256 176.225 159.739 175.772 161.195 175.213C162.719 174.659 164.148 173.995 165.546 173.295C166.226 172.961 166.906 172.627 167.592 172.224C169.611 171.048 171.471 169.688 173.236 168.219C173.42 168.059 173.599 167.968 173.784 167.807C173.931 167.679 174.01 167.547 174.158 167.418C176.112 165.721 177.875 163.803 179.512 161.739C179.549 161.707 179.585 161.675 179.622 161.643C188.393 150.363 191.41 134.77 185.193 119.943C183.055 114.801 179.821 110.483 176.018 106.851L119.743 41.6316L96.6927 15.1009L96.7614 15.1054Z" fill="#4145C7"/>
</svg>
