<svg width="261" height="258" viewBox="0 0 261 258" fill="none" xmlns="http://www.w3.org/2000/svg">
<path d="M28.3418 91.9026C1.64897 107.314 -7.40577 141.627 8.12274 168.523C23.6512 195.419 57.8945 204.734 84.5873 189.323L147.551 152.971L147.625 154.146L148.343 201.852C148.802 232.88 174.243 257.707 205.095 257.483C236.004 257.226 260.57 231.85 260.144 200.879L259.427 153.174L257.946 56.1134C257.9 55.3788 257.797 54.6768 257.783 53.9993C257.677 51.8524 257.458 49.7712 257.092 47.6981C256.75 45.5353 256.238 43.4704 255.669 41.4384C255.402 40.451 255.134 39.4636 254.776 38.4517C253.737 35.4733 252.414 32.6585 250.921 29.9419C250.756 29.6564 250.681 29.3954 250.516 29.1098C250.384 28.8814 250.229 28.7427 250.097 28.5143C248.349 25.4878 246.262 22.6576 243.948 19.9583C243.915 19.9012 243.882 19.8441 243.849 19.7869C231.157 5.26305 211.269 -2.74617 190.021 1.67888C182.657 3.18961 176.102 6.36472 170.311 10.4695L69.4059 68.2704L28.3182 91.9924L28.3418 91.9026Z" fill="#D6F5FF"/>
</svg>
