<svg width="390" height="393" viewBox="0 0 390 393" fill="none" xmlns="http://www.w3.org/2000/svg">
<g style="mix-blend-mode:overlay">
<path d="M139.136 350.543C162.429 390.889 214.292 404.574 254.944 381.104C295.597 357.633 309.676 305.876 286.383 265.531L231.438 170.364L233.215 170.252L305.32 169.167C352.218 168.473 389.743 130.019 389.404 83.3879C389.016 36.6711 350.661 -0.460373 303.85 0.18347L231.745 1.26815L85.0422 3.50621C83.9319 3.57624 82.8709 3.73197 81.8468 3.75216C78.6019 3.9124 75.4562 4.24383 72.3229 4.79654C69.0538 5.31342 65.9329 6.08738 62.8616 6.94689C61.3691 7.35173 59.8767 7.75652 58.3473 8.29685C53.8456 9.86801 49.5912 11.8675 45.4851 14.1239C45.0535 14.3731 44.659 14.4867 44.2274 14.7358C43.8822 14.9352 43.6726 15.1704 43.3273 15.3697C38.7529 18.0108 34.4751 21.1658 30.3952 24.6635C30.3089 24.7133 30.2226 24.7631 30.1363 24.8129C8.18397 43.9972 -3.92165 74.0571 2.76664 106.172C5.05005 117.303 9.84909 127.21 16.0533 135.962L103.417 288.477L139.272 350.579L139.136 350.543Z" fill="#4145C7"/>
</g>
</svg>
