<svg width="614" height="655" viewBox="0 0 614 655" fill="none" xmlns="http://www.w3.org/2000/svg">
<path d="M185.782 548.305C132.353 521.072 118.579 478.092 126.374 442.567C135.91 398.751 176.852 375.778 211.211 365.432C234.596 358.358 248.067 339.873 224.909 316.519C187.901 279.321 144.083 220.366 164.971 164.379L165.198 163.77C190.172 113.183 266.381 95.9915 366.202 133.874C519.226 191.84 531.561 295.143 520.891 325.495C519.377 329.755 516.047 339.492 523.312 346.415C525.734 348.697 532.394 351.131 541.097 350.979C585.748 350.066 606.181 309.292 612.084 283.429C628.052 213.596 544.73 57.8803 342.212 10.7168C342.363 10.7168 213.859 -20.548 129.628 23.7248C129.628 23.7248 28.6722 66.4002 28.2181 179.288C27.991 232.842 59.7764 280.538 78.3935 304.272C85.0533 312.792 84.0694 325.343 76.2745 331.277C-37.0175 416.78 -17.0381 570.441 89.6697 623.995C196.378 677.548 254.651 652.065 280.155 619.811C292.036 604.825 291.355 585.96 274.933 581.624C239.439 572.191 210.908 561.237 185.858 548.381L185.782 548.305Z" fill="#D6F5FF"/>
</svg>
