<svg width="283" height="286" viewBox="0 0 283 286" fill="none" xmlns="http://www.w3.org/2000/svg">
<path d="M100.921 30.8418C117.85 1.52057 155.542 -8.42577 185.086 8.63178C214.631 25.6893 224.863 63.3044 207.934 92.6256L168.003 161.789L169.294 161.87L221.697 162.659C255.78 163.163 283.052 191.11 282.806 225C282.524 258.951 254.649 285.937 220.628 285.469L168.226 284.681L61.6081 283.054C60.8011 283.003 60.03 282.89 59.2858 282.876C56.9275 282.759 54.6414 282.518 52.3642 282.117C49.9884 281.741 47.7202 281.178 45.4881 280.554C44.4034 280.26 43.3188 279.965 42.2073 279.573C38.9357 278.431 35.8437 276.978 32.8596 275.338C32.5459 275.157 32.2592 275.074 31.9456 274.893C31.6946 274.748 31.5423 274.577 31.2914 274.432C27.9668 272.513 24.858 270.22 21.8928 267.678C21.8301 267.642 21.7674 267.606 21.7047 267.569C5.75063 253.627 -3.04725 231.781 1.81353 208.441C3.47302 200.352 6.96076 193.152 11.4698 186.791L74.9622 75.9494L101.02 30.8158L100.921 30.8418Z" fill="#007BA2"/>
</svg>
