<svg width="368" height="373" viewBox="0 0 368 373" fill="none" xmlns="http://www.w3.org/2000/svg">
<path d="M236.992 40.7678C214.947 2.58408 165.862 -10.3686 127.388 11.8447C88.9133 34.058 75.5886 83.0424 97.634 121.226L149.635 211.294L147.953 211.401L79.7113 212.427C35.3259 213.084 -0.189119 249.478 0.131462 293.611C0.49884 337.825 36.799 372.967 81.1027 372.358L149.345 371.331L288.188 369.213C289.239 369.147 290.243 368.999 291.212 368.98C294.283 368.829 297.26 368.515 300.226 367.992C303.32 367.503 306.273 366.77 309.18 365.957C310.593 365.574 312.005 365.19 313.453 364.679C317.713 363.192 321.74 361.3 325.626 359.164C326.034 358.928 326.408 358.821 326.816 358.585C327.143 358.396 327.341 358.174 327.668 357.985C331.997 355.486 336.046 352.5 339.907 349.189C339.989 349.142 340.071 349.095 340.152 349.048C360.928 330.891 372.386 302.442 366.056 272.047C363.895 261.513 359.353 252.137 353.481 243.853L270.797 99.5094L236.863 40.734L236.992 40.7678Z" fill="#FFEDBF"/>
</svg>
