<svg width="26" height="26" viewBox="0 0 26 26" fill="none" xmlns="http://www.w3.org/2000/svg">
<path d="M22.1 -8.72119e-05H3.9C1.69 -8.72119e-05 0 1.68991 0 3.89991V22.0999C0 24.3099 1.69 25.9999 3.9 25.9999H22.1C24.31 25.9999 26 24.3099 26 22.0999V3.89991C26 1.68991 24.31 -8.72119e-05 22.1 -8.72119e-05ZM15.21 11.6999C14.95 12.0899 14.69 12.4799 14.3 12.6099V16.8999C14.3 17.6799 13.78 18.1999 13 18.1999C12.22 18.1999 11.7 17.6799 11.7 16.8999V12.6099C10.4 11.8299 10.01 10.2699 10.79 9.09991C11.57 7.92991 13 7.40991 14.3 8.18991C15.6 8.83991 15.99 10.3999 15.21 11.6999Z" fill="#664411"/>
</svg>
