<svg width="30" height="30" viewBox="0 0 30 30" fill="none" xmlns="http://www.w3.org/2000/svg">
<path d="M21.8715 14.1659C21.8715 14.1659 24.0987 11.7391 24.0886 9.21746C24.0724 5.30322 20.6089 3.82405 20.6089 3.82405C17.721 2.28719 13.3131 3.37082 13.3191 3.37288C6.37595 5.00862 3.51842 10.4082 4.06561 12.8289C4.26827 13.725 4.96948 15.1403 6.49957 15.1712C6.79749 15.1774 7.02852 15.0909 7.10959 15.0126C7.35886 14.7736 7.24537 14.4337 7.19268 14.2874C6.82586 13.2368 7.24942 9.65421 12.4963 7.64146C15.9193 6.32916 18.5336 6.92454 19.3889 8.67771L19.397 8.69831C20.5663 11.8606 15.8443 15.2969 15.8443 15.2969C16.8353 15.4267 20.0313 15.713 20.5825 18.2655C20.848 19.4975 20.5096 21.057 18.6856 22.015C17.0461 22.874 12.6119 23.043 12.6119 23.043C12.6119 23.043 12.6301 13.4242 12.6119 11.1272C12.6098 10.8285 12.4031 10.7358 12.3808 10.7193C12.1903 10.5998 11.9937 10.6801 11.9633 10.6925C10.8061 11.1993 9.82525 12.3509 9.34089 13.4613C9.04298 14.1432 8.8849 14.9261 8.85856 15.8572C8.84234 16.43 8.82208 26.7224 8.82208 26.7224C8.82208 26.8686 8.93962 26.9881 9.08351 26.9881C9.08351 26.9881 18.3897 27.3074 21.9829 24.6355C25.4849 22.0315 26.5367 16.4815 21.8715 14.1638V14.1659Z" fill="#FFC600"/>
</svg>
