<svg width="66" height="25" viewBox="0 0 66 25" fill="none" xmlns="http://www.w3.org/2000/svg">
<path d="M19.3047 13.2392C19.0976 12.5684 18.5615 12.0839 17.8548 11.7982C17.1603 11.5249 16.4049 11.5373 15.6861 11.4379C15.2109 11.3758 14.6504 11.2019 14.6139 10.6677C14.5529 9.92239 15.1256 9.53729 15.8323 9.45034C16.3927 9.38823 17.1238 9.4876 17.5624 9.82301C17.9035 10.0715 18.33 10.6056 18.8417 10.2702C19.4631 9.88512 18.9026 9.0404 18.4884 8.70499C17.9157 8.2081 16.8435 7.97207 15.8688 8.00934C14.9916 8.0466 14.2605 8.23294 13.7366 8.70499C12.6644 9.74848 12.7375 11.8976 14.224 12.5311C14.9672 12.8665 15.8201 12.8044 16.5877 12.9659C17.2822 13.1398 17.7452 13.3634 17.7452 14.146C17.7452 15.1025 16.5146 15.674 15.4424 15.3013C15.0647 15.115 14.6992 14.8168 14.5286 14.469C14.3336 14.0466 13.8341 13.9845 13.4929 14.0591C12.9812 14.1833 12.9081 14.8292 13.0909 15.2019C13.3467 15.7361 13.7122 16.1709 14.2362 16.469C15.8932 17.4007 18.793 16.7547 19.3169 14.8914C19.4631 14.4441 19.4631 13.7112 19.3047 13.2392Z" fill="#3B3FB5"/>
<path d="M26.3885 14.7671C26.2179 14.4069 25.8036 14.2951 25.5112 14.3945C25.1335 14.5063 24.8046 14.9038 24.5365 15.0404C23.708 15.5125 22.6602 15.2765 22.1241 14.4938C21.4418 13.5 21.6002 11.8106 22.1119 10.6926C22.5993 9.62425 24.0126 9.31369 24.8046 10.2702C25.0361 10.5684 25.2919 10.9038 25.7427 10.7795C26.8271 10.5062 26.023 9.13978 25.5112 8.68015C24.7071 7.92238 23.0622 7.77331 22.0632 8.35716C20.7473 9.10251 20.0528 10.6553 19.9675 11.8727C19.8578 13.2268 19.931 15.0901 21.0641 16.0466C22.0144 16.8541 23.3668 17.1274 24.439 16.8914C25.4016 16.6553 26.8271 15.7112 26.3885 14.7671Z" fill="#3B3FB5"/>
<path d="M33.2501 16.3075C33.2379 16.233 33.2135 16.1212 33.1892 16.0218C33.1404 15.9348 33.1039 15.8355 33.0551 15.7485C33.0186 15.674 32.9699 15.5746 32.9333 15.5125L32.8236 15.3137L31.7027 13.0156C31.7393 13.0031 31.8002 12.9907 31.8367 12.9659C32.7384 12.6056 33.1404 11.7858 33.1404 10.9038C33.1404 10.146 32.8358 9.33854 32.2754 8.81679C32.1779 8.71742 32.0682 8.64288 31.9098 8.55592C31.788 8.49381 31.6418 8.4317 31.5078 8.38201C31.057 8.19567 30.4965 8.13356 30.0213 8.10872C29.3146 8.07145 28.5836 8.08387 27.8647 8.07145C27.4749 8.05903 27.2921 8.14598 27.1946 8.24536C27.1337 8.29505 27.0972 8.36959 27.0728 8.45654C27.0362 8.53108 26.9997 8.63046 26.9875 8.72984C26.9753 8.81679 26.9631 8.9286 26.9631 9.02798V16.0839C26.9631 16.1709 26.9753 16.233 26.9997 16.3199C27.024 16.3945 27.0484 16.4938 27.085 16.5808C27.1215 16.6553 27.1703 16.7423 27.2312 16.792C27.3287 16.8541 27.4139 16.8914 27.5358 16.9162C27.7673 16.9659 27.9866 16.9411 28.1572 16.8293C28.3521 16.705 28.4739 16.4938 28.4983 16.3075C28.5105 16.1957 28.5227 16.0342 28.5227 15.9597C28.5227 15.823 28.5349 15.7112 28.5349 15.587V13.3386H28.7664C29.0831 13.3261 29.3756 13.351 29.7167 13.3261C29.8386 13.3137 29.9726 13.3013 30.1066 13.3013L31.459 15.9224C31.5443 16.1088 31.654 16.2702 31.7271 16.4069C31.8246 16.556 31.922 16.6678 32.0682 16.792C32.1657 16.8789 32.2754 16.9286 32.4094 16.9411C32.5434 16.9659 32.6653 16.9411 32.7871 16.9038C32.8846 16.8665 32.982 16.8168 33.0551 16.7671C33.1282 16.705 33.1892 16.6429 33.2257 16.5435C33.2501 16.4814 33.2623 16.3945 33.2501 16.3075ZM28.5349 11.8851C28.5349 10.9286 28.5592 10.2826 28.5349 9.59941C29.0344 9.59941 29.6314 9.59941 30.1066 9.62425C30.8986 9.66152 31.4468 10.059 31.3859 10.8789C31.3494 11.4379 30.7767 11.8851 30.2041 11.8851H28.5349Z" fill="#3B3FB5"/>
<path d="M35.9023 8.35716C34.5377 8.87891 33.8554 10.5932 33.7701 11.8106C33.6726 13.1274 33.9407 14.8417 34.9398 15.8355C35.7683 16.6553 36.9623 16.9286 38.0101 16.6802C38.7655 16.5063 39.4478 16.0466 39.8499 15.3386C40.0205 15.028 40.1545 14.7174 40.252 14.3448C40.5931 13.2019 40.5444 11.6491 40.0692 10.382C39.4478 8.70499 38.0832 7.51244 35.9023 8.35716ZM38.7534 13.674C38.7046 13.8976 38.6315 14.1087 38.534 14.2951C38.3025 14.792 37.9614 15.1025 37.5106 15.2019C36.9623 15.3261 36.3531 15.1398 35.9388 14.6429C35.4028 13.9845 35.2931 12.8789 35.354 12.0218C35.4028 11.2267 35.6586 10.2205 36.3775 9.8727C37.5959 9.28885 38.2904 9.90997 38.6437 10.9783C38.9239 11.8354 38.9483 12.9038 38.7534 13.674Z" fill="#3B3FB5"/>
<path d="M46.8356 15.91C46.8112 15.823 46.7625 15.7485 46.665 15.6615C46.6162 15.6119 46.5431 15.5622 46.4457 15.5373C46.3482 15.5125 46.2507 15.4876 46.1289 15.4752C46.0192 15.4628 45.8974 15.4504 45.7999 15.4504H45.2273L42.8148 15.4255L42.8636 9.57456V9.35096C42.8636 9.264 42.8636 9.16462 42.8879 9.06524C42.8879 8.96586 42.8636 8.86648 42.8514 8.75468C42.8392 8.6553 42.8148 8.55592 42.7905 8.48139C42.7539 8.39443 42.7052 8.3199 42.6564 8.27021C42.559 8.19567 42.4737 8.13356 42.3762 8.12114C42.2787 8.10872 42.1691 8.09629 42.0594 8.09629C41.9254 8.09629 41.7914 8.13356 41.6817 8.2081C41.5599 8.28263 41.4746 8.38201 41.4258 8.50623C41.3406 8.6553 41.304 8.81679 41.2918 8.99071C41.2918 9.1522 41.2796 9.32611 41.2675 9.4876V9.54972C41.2553 10.1087 41.2431 10.5187 41.2431 11.1149V12.7795L41.2187 14.5808C41.2187 15.115 41.1822 15.6615 41.2431 16.2206C41.2431 16.2951 41.2675 16.382 41.2918 16.4566C41.5477 17.1647 42.6686 16.9659 43.3022 16.9907C43.9723 17.0032 44.6059 17.0032 45.2394 16.9907H45.2882C45.4831 16.9659 45.6781 16.9659 45.8608 16.9535C46.0436 16.9535 46.2264 16.9162 46.4091 16.8541C46.5431 16.8044 46.6406 16.7423 46.7259 16.6305C46.799 16.5311 46.8599 16.4069 46.8599 16.2827C46.8599 16.1833 46.8599 15.997 46.8356 15.91Z" fill="#3B3FB5"/>
<path d="M52.9756 15.91C52.9513 15.823 52.9025 15.7485 52.8051 15.6615C52.7563 15.6119 52.6832 15.5622 52.5857 15.5373C52.4883 15.5125 52.3908 15.4876 52.269 15.4752C52.1593 15.4628 52.0375 15.4504 51.94 15.4504H51.3673L48.9549 15.4255L49.0036 9.57456V9.35096C49.0036 9.264 49.0036 9.16462 49.028 9.06524C49.028 8.96586 49.0036 8.86648 48.9915 8.75468C48.9793 8.6553 48.9549 8.55592 48.9305 8.48139C48.894 8.39443 48.8452 8.3199 48.7965 8.27021C48.699 8.19567 48.6138 8.13356 48.5163 8.12114C48.4188 8.10872 48.3092 8.09629 48.1995 8.09629C48.0655 8.09629 47.9314 8.13356 47.8218 8.2081C47.7 8.28263 47.6147 8.38201 47.5659 8.50623C47.4806 8.6553 47.4441 8.81679 47.4319 8.99071C47.4319 9.1522 47.4197 9.32611 47.4075 9.4876V9.54972C47.3954 10.1087 47.3832 10.5187 47.3832 11.1149V12.7795L47.3588 14.5808C47.3588 15.115 47.3222 15.6615 47.3832 16.2206C47.3832 16.2951 47.4075 16.382 47.4319 16.4566C47.6878 17.1647 48.8087 16.9659 49.4423 16.9907C50.1124 17.0032 50.746 17.0032 51.3795 16.9907H51.4283C51.6232 16.9659 51.8181 16.9659 52.0009 16.9535C52.1837 16.9535 52.3664 16.9162 52.5492 16.8541C52.6832 16.8044 52.7807 16.7423 52.866 16.6305C52.9391 16.5311 53 16.4069 53 16.2827C53 16.1833 53 15.997 52.9756 15.91Z" fill="#3B3FB5"/>
<rect x="1" y="1" width="64" height="23" rx="11.5" stroke="#3B3FB5" stroke-opacity="0.25" stroke-width="2"/>
</svg>
