<svg width="26" height="26" viewBox="0 0 26 26" fill="none" xmlns="http://www.w3.org/2000/svg">
<path d="M20.1501 0C23.3807 0 26 2.24982 26 5.02537C26 7.80092 23.3807 10.0507 20.1501 10.0507C19.8401 10.0507 19.5352 10.0299 19.2383 9.98967C17.982 11.3179 16.4815 11.5568 15.0315 11.5916V11.2661C15.8147 10.8602 16.494 10.1219 16.494 9.27761C16.4939 9.16166 16.4856 9.04589 16.4691 8.93125C15.1463 8.00967 14.3003 6.60257 14.3003 5.02537C14.3003 2.24982 16.9196 0 20.1501 0Z" fill="#664411"/>
<ellipse cx="8.26814" cy="13.6843" rx="4.14363" ry="4.10536" fill="#664411"/>
<path fill-rule="evenodd" clip-rule="evenodd" d="M16.554 26.0002H0C0.253081 22.2695 3.86207 19.311 8.27702 19.311C12.692 19.311 16.301 22.2695 16.554 26.0002Z" fill="#664411"/>
</svg>
