<svg width="26" height="26" viewBox="0 0 26 26" fill="none" xmlns="http://www.w3.org/2000/svg">
<path d="M0 14.3716C0 13.6137 0.612655 12.9994 1.3684 12.9994H6.27843C7.03417 12.9994 7.64683 13.6137 7.64683 14.3716V24.6267C7.64683 25.3846 7.03418 25.9989 6.27843 25.9989H1.3684C0.612657 25.9989 0 25.3846 0 24.6267V14.3716Z" fill="#664411"/>
<path d="M9.17627 8.59521C9.17627 7.83737 9.78892 7.22302 10.5447 7.22302H15.4547C16.2104 7.22302 16.8231 7.83737 16.8231 8.59521V24.6279C16.8231 25.3858 16.2104 26.0001 15.4547 26.0001H10.5447C9.78893 26.0001 9.17627 25.3858 9.17627 24.6279V8.59521Z" fill="#664411"/>
<path d="M18.3535 18.704C18.3535 17.9461 18.9662 17.3318 19.7219 17.3318H24.6319C25.3877 17.3318 26.0003 17.9461 26.0003 18.704V24.626C26.0003 25.3838 25.3877 25.9981 24.6319 25.9981H19.7219C18.9662 25.9981 18.3535 25.3838 18.3535 24.626V18.704Z" fill="#664411"/>
<path d="M12.3159 1.36841L13.2062 3.21504L15.0528 4.10525L13.2062 4.99546L12.3159 6.84209L11.4257 4.99546L9.5791 4.10525L11.4257 3.21504L12.3159 1.36841Z" fill="#664411"/>
<path d="M14.4444 0L14.8939 0.995033L15.8889 1.44444L14.8939 1.89384L14.4444 2.88887L13.995 1.89384L13 1.44444L13.995 0.995033L14.4444 0Z" fill="#664411"/>
</svg>
