<svg width="26" height="26" viewBox="0 0 26 26" fill="none" xmlns="http://www.w3.org/2000/svg">
<path fill-rule="evenodd" clip-rule="evenodd" d="M24.5556 10.0195C24.5556 4.48565 19.0582 0 12.2778 0C5.49737 0 0 4.48565 0 10.0195C0 13.1641 1.77567 15.9695 4.55199 17.8069C4.58648 18.0355 4.60393 18.2663 4.60417 18.4975C4.60417 20.1808 3.17841 21.6529 1.53472 22.4622V23.1111C4.57808 23.0417 7.72733 22.5654 10.364 19.9172C10.7739 19.9699 11.1912 20.006 11.614 20.0245C11.5755 19.7746 11.5557 19.5202 11.5557 19.2622C11.5557 15.8035 15.1128 13 19.5001 13C21.0009 13 22.4045 13.328 23.6018 13.8981C24.2161 12.7051 24.5556 11.3947 24.5556 10.0195Z" fill="#664411"/>
<path d="M19.5 14.4446C15.9104 14.4446 13 16.6874 13 19.4543C13 22.2212 15.9104 24.4641 19.5 24.4641C19.8445 24.4641 20.1833 24.4433 20.5132 24.4032C21.9091 25.7273 23.5763 25.9655 25.1875 26.0001V25.6757C24.3173 25.271 23.5625 24.535 23.5625 23.6933C23.5626 23.5778 23.5719 23.4623 23.5901 23.3481C25.0599 22.4293 26 21.0266 26 19.4543C26 16.6874 23.0896 14.4446 19.5 14.4446Z" fill="#664411"/>
</svg>
