<svg width="66" height="25" viewBox="0 0 66 25" fill="none" xmlns="http://www.w3.org/2000/svg">
<path d="M19.3047 13.2391C19.0976 12.5683 18.5615 12.0838 17.8548 11.7981C17.1603 11.5248 16.4049 11.5372 15.6861 11.4379C15.2109 11.3758 14.6504 11.2018 14.6139 10.6677C14.5529 9.92233 15.1256 9.53723 15.8323 9.45028C16.3927 9.38816 17.1238 9.48754 17.5624 9.82295C17.9035 10.0714 18.33 10.6056 18.8417 10.2702C19.4631 9.88506 18.9026 9.04034 18.4884 8.70493C17.9157 8.20804 16.8435 7.97201 15.8688 8.00928C14.9916 8.04654 14.2605 8.23288 13.7366 8.70493C12.6644 9.74841 12.7375 11.8975 14.224 12.531C14.9672 12.8664 15.8201 12.8043 16.5877 12.9658C17.2822 13.1397 17.7452 13.3633 17.7452 14.146C17.7452 15.1025 16.5146 15.6739 15.4424 15.3012C15.0647 15.1149 14.6992 14.8168 14.5286 14.4689C14.3336 14.0466 13.8341 13.9845 13.4929 14.059C12.9812 14.1832 12.9081 14.8292 13.0909 15.2019C13.3467 15.736 13.7122 16.1708 14.2362 16.4689C15.8932 17.4006 18.793 16.7547 19.3169 14.8913C19.4631 14.4441 19.4631 13.7112 19.3047 13.2391Z" fill="white"/>
<path d="M26.3885 14.7671C26.2179 14.4068 25.8036 14.295 25.5112 14.3944C25.1335 14.5062 24.8046 14.9037 24.5365 15.0404C23.708 15.5124 22.6602 15.2764 22.1241 14.4938C21.4418 13.5 21.6002 11.8105 22.1119 10.6925C22.5993 9.62419 24.0126 9.31363 24.8046 10.2702C25.0361 10.5683 25.2919 10.9037 25.7427 10.7795C26.8271 10.5062 26.023 9.13972 25.5112 8.68009C24.7071 7.92232 23.0622 7.77325 22.0632 8.3571C20.7473 9.10245 20.0528 10.6553 19.9675 11.8726C19.8578 13.2267 19.931 15.0901 21.0641 16.0466C22.0144 16.854 23.3668 17.1273 24.439 16.8913C25.4016 16.6553 26.8271 15.7112 26.3885 14.7671Z" fill="white"/>
<path d="M33.2501 16.3075C33.2379 16.2329 33.2135 16.1211 33.1892 16.0217C33.1404 15.9348 33.1039 15.8354 33.0551 15.7484C33.0186 15.6739 32.9699 15.5745 32.9333 15.5124L32.8236 15.3137L31.7027 13.0155C31.7393 13.0031 31.8002 12.9907 31.8367 12.9658C32.7384 12.6056 33.1404 11.7857 33.1404 10.9037C33.1404 10.1459 32.8358 9.33847 32.2754 8.81673C32.1779 8.71735 32.0682 8.64282 31.9098 8.55586C31.788 8.49375 31.6418 8.43164 31.5078 8.38195C31.057 8.19561 30.4965 8.1335 30.0213 8.10866C29.3146 8.07139 28.5836 8.08381 27.8647 8.07139C27.4749 8.05897 27.2921 8.14592 27.1946 8.2453C27.1337 8.29499 27.0972 8.36953 27.0728 8.45648C27.0362 8.53102 26.9997 8.6304 26.9875 8.72978C26.9753 8.81673 26.9631 8.92854 26.9631 9.02791V16.0838C26.9631 16.1708 26.9753 16.2329 26.9997 16.3199C27.024 16.3944 27.0484 16.4938 27.085 16.5807C27.1215 16.6553 27.1703 16.7422 27.2312 16.7919C27.3287 16.854 27.4139 16.8913 27.5358 16.9161C27.7673 16.9658 27.9866 16.941 28.1572 16.8292C28.3521 16.705 28.4739 16.4938 28.4983 16.3075C28.5105 16.1956 28.5227 16.0342 28.5227 15.9596C28.5227 15.823 28.5349 15.7112 28.5349 15.5869V13.3385H28.7664C29.0831 13.3261 29.3756 13.3509 29.7167 13.3261C29.8386 13.3136 29.9726 13.3012 30.1066 13.3012L31.459 15.9224C31.5443 16.1087 31.654 16.2702 31.7271 16.4068C31.8246 16.5559 31.922 16.6677 32.0682 16.7919C32.1657 16.8789 32.2754 16.9286 32.4094 16.941C32.5434 16.9658 32.6653 16.941 32.7871 16.9037C32.8846 16.8665 32.982 16.8168 33.0551 16.7671C33.1282 16.705 33.1892 16.6429 33.2257 16.5435C33.2501 16.4814 33.2623 16.3944 33.2501 16.3075ZM28.5349 11.8851C28.5349 10.9285 28.5592 10.2826 28.5349 9.59935C29.0344 9.59935 29.6314 9.59935 30.1066 9.62419C30.8986 9.66146 31.4468 10.059 31.3859 10.8789C31.3494 11.4379 30.7767 11.8851 30.2041 11.8851H28.5349Z" fill="white"/>
<path d="M35.9023 8.3571C34.5377 8.87885 33.8554 10.5931 33.7701 11.8105C33.6726 13.1273 33.9407 14.8416 34.9398 15.8354C35.7683 16.6553 36.9623 16.9286 38.0101 16.6801C38.7655 16.5062 39.4478 16.0466 39.8499 15.3385C40.0205 15.0279 40.1545 14.7174 40.252 14.3447C40.5931 13.2018 40.5444 11.649 40.0692 10.382C39.4478 8.70493 38.0832 7.51238 35.9023 8.3571ZM38.7534 13.6739C38.7046 13.8975 38.6315 14.1087 38.534 14.295C38.3025 14.7919 37.9614 15.1025 37.5106 15.2019C36.9623 15.3261 36.3531 15.1397 35.9388 14.6428C35.4028 13.9845 35.2931 12.8789 35.354 12.0217C35.4028 11.2267 35.6586 10.2205 36.3775 9.87264C37.5959 9.28879 38.2904 9.90991 38.6437 10.9782C38.9239 11.8354 38.9483 12.9037 38.7534 13.6739Z" fill="white"/>
<path d="M46.8356 15.9099C46.8112 15.823 46.7625 15.7484 46.665 15.6615C46.6162 15.6118 46.5431 15.5621 46.4457 15.5373C46.3482 15.5124 46.2507 15.4876 46.1289 15.4751C46.0192 15.4627 45.8974 15.4503 45.7999 15.4503H45.2273L42.8148 15.4255L42.8636 9.5745V9.3509C42.8636 9.26394 42.8636 9.16456 42.8879 9.06518C42.8879 8.9658 42.8636 8.86642 42.8514 8.75462C42.8392 8.65524 42.8148 8.55586 42.7905 8.48133C42.7539 8.39437 42.7052 8.31984 42.6564 8.27015C42.559 8.19561 42.4737 8.1335 42.3762 8.12108C42.2787 8.10866 42.1691 8.09623 42.0594 8.09623C41.9254 8.09623 41.7914 8.1335 41.6817 8.20804C41.5599 8.28257 41.4746 8.38195 41.4258 8.50617C41.3406 8.65524 41.304 8.81673 41.2918 8.99065C41.2918 9.15214 41.2796 9.32605 41.2675 9.48754V9.54966C41.2553 10.1087 41.2431 10.5186 41.2431 11.1149V12.7795L41.2187 14.5807C41.2187 15.1149 41.1822 15.6615 41.2431 16.2205C41.2431 16.295 41.2675 16.382 41.2918 16.4565C41.5477 17.1646 42.6686 16.9658 43.3022 16.9907C43.9723 17.0031 44.6059 17.0031 45.2394 16.9907H45.2882C45.4831 16.9658 45.6781 16.9658 45.8608 16.9534C46.0436 16.9534 46.2264 16.9161 46.4091 16.854C46.5431 16.8043 46.6406 16.7422 46.7259 16.6304C46.799 16.5311 46.8599 16.4068 46.8599 16.2826C46.8599 16.1832 46.8599 15.9969 46.8356 15.9099Z" fill="white"/>
<path d="M52.9756 15.9099C52.9513 15.823 52.9025 15.7484 52.8051 15.6615C52.7563 15.6118 52.6832 15.5621 52.5857 15.5373C52.4883 15.5124 52.3908 15.4876 52.269 15.4751C52.1593 15.4627 52.0375 15.4503 51.94 15.4503H51.3673L48.9549 15.4255L49.0036 9.5745V9.3509C49.0036 9.26394 49.0036 9.16456 49.028 9.06518C49.028 8.9658 49.0036 8.86642 48.9915 8.75462C48.9793 8.65524 48.9549 8.55586 48.9305 8.48133C48.894 8.39437 48.8452 8.31984 48.7965 8.27015C48.699 8.19561 48.6138 8.1335 48.5163 8.12108C48.4188 8.10866 48.3092 8.09623 48.1995 8.09623C48.0655 8.09623 47.9314 8.1335 47.8218 8.20804C47.7 8.28257 47.6147 8.38195 47.5659 8.50617C47.4806 8.65524 47.4441 8.81673 47.4319 8.99065C47.4319 9.15214 47.4197 9.32605 47.4075 9.48754V9.54966C47.3954 10.1087 47.3832 10.5186 47.3832 11.1149V12.7795L47.3588 14.5807C47.3588 15.1149 47.3222 15.6615 47.3832 16.2205C47.3832 16.295 47.4075 16.382 47.4319 16.4565C47.6878 17.1646 48.8087 16.9658 49.4423 16.9907C50.1124 17.0031 50.746 17.0031 51.3795 16.9907H51.4283C51.6232 16.9658 51.8181 16.9658 52.0009 16.9534C52.1837 16.9534 52.3664 16.9161 52.5492 16.854C52.6832 16.8043 52.7807 16.7422 52.866 16.6304C52.9391 16.5311 53 16.4068 53 16.2826C53 16.1832 53 15.9969 52.9756 15.9099Z" fill="white"/>
<rect x="1" y="1" width="64" height="23" rx="11.5" stroke="white" stroke-opacity="0.25" stroke-width="2"/>
</svg>
