<svg width="30" height="30" viewBox="0 0 30 30" fill="none" xmlns="http://www.w3.org/2000/svg">
<path d="M11.4805 23.7954L10.8734 22.7027L11.4805 23.7954ZM11.8268 23.742L12.068 22.5155L11.8268 23.742ZM6.08989 25.8137L7.29179 26.1571L6.08989 25.8137ZM7.20224 21.9205L6.00033 21.5771L7.20224 21.9205ZM7.24349 21.8703L7.94119 20.8331L7.24349 21.8703ZM24.75 14.5C24.75 18.8435 20.395 22.75 14.5 22.75V25.25C21.3075 25.25 27.25 20.6499 27.25 14.5H24.75ZM14.5 6.25C20.395 6.25 24.75 10.1565 24.75 14.5H27.25C27.25 8.35009 21.3075 3.75 14.5 3.75V6.25ZM4.25 14.5C4.25 10.1565 8.605 6.25 14.5 6.25V3.75C7.69245 3.75 1.75 8.35009 1.75 14.5H4.25ZM7.94119 20.8331C5.62782 19.2769 4.25 16.9807 4.25 14.5H1.75C1.75 17.9668 3.68017 20.9798 6.54579 22.9075L7.94119 20.8331ZM7.29179 26.1571L8.40414 22.2639L6.00033 21.5771L4.88798 25.4703L7.29179 26.1571ZM10.8734 22.7027L6.20642 25.2955L7.42053 27.4809L12.0875 24.8881L10.8734 22.7027ZM14.5 22.75C13.6606 22.75 12.8463 22.6685 12.068 22.5155L11.5856 24.9685C12.523 25.1528 13.4988 25.25 14.5 25.25V22.75ZM12.0875 24.8881C11.9269 24.9774 11.7481 25.0005 11.5856 24.9685L12.068 22.5155C11.6691 22.437 11.2447 22.4965 10.8734 22.7027L12.0875 24.8881ZM4.88798 25.4703C4.45967 26.9694 6.05765 28.238 7.42053 27.4809L6.20642 25.2955C6.79051 24.971 7.47536 25.5147 7.29179 26.1571L4.88798 25.4703ZM7.57026 20.7049C6.89588 20.5123 6.19301 20.9027 6.00033 21.5771L8.40414 22.2639C8.21751 22.9171 7.53667 23.2954 6.88345 23.1087L7.57026 20.7049ZM6.54579 22.9075C5.96182 22.5147 5.90928 21.8255 6.11255 21.3784C6.3174 20.9278 6.88193 20.5083 7.57026 20.7049L6.88345 23.1087C7.59371 23.3117 8.17601 22.8803 8.38843 22.413C8.59926 21.9492 8.54407 21.2387 7.94119 20.8331L6.54579 22.9075Z" fill="#FFC600"/>
</svg>
